<svg xmlns="http://www.w3.org/2000/svg" height="512pt" version="1.1" viewBox="0 0 512 512" width="512pt">
<g id="surface1">
<path d="M 512 256 C 512 397.386719 397.386719 512 256 512 C 114.613281 512 0 397.386719 0 256 C 0 114.613281 114.613281 0 256 0 C 397.386719 0 512 114.613281 512 256 Z M 512 256 " style=" stroke:none;fill-rule:nonzero;fill:rgb(3.529412%,80.784314%,40.392157%);fill-opacity:1;" />
<path d="M 512 256 C 512 242.550781 510.957031 229.347656 508.957031 216.457031 L 433.5 141 L 402.609375 174.664062 L 326.527344 98.582031 L 198.671875 98.582031 L 78.5 371 L 216.457031 508.957031 C 229.347656 510.957031 242.550781 512 256 512 C 397.386719 512 512 397.386719 512 256 Z M 512 256 " style=" stroke:none;fill-rule:nonzero;fill:rgb(10.196078%,67.843137%,36.078431%);fill-opacity:1;" />
<path d="M 335 174 L 308 174 L 308 121.898438 C 308 116.714844 303.785156 112.5 298.601562 112.5 L 213.398438 112.5 C 208.214844 112.5 204 116.714844 204 121.898438 L 204 174 L 177 174 L 177 121.898438 C 177 101.828125 193.328125 85.5 213.398438 85.5 L 298.601562 85.5 C 318.671875 85.5 335 101.828125 335 121.898438 Z M 335 174 " style=" stroke:none;fill-rule:nonzero;fill:rgb(25.490196%,28.627451%,32.156863%);fill-opacity:1;" />
<path d="M 298.601562 85.5 L 255.761719 85.5 L 255.761719 112.5 L 298.601562 112.5 C 303.785156 112.5 308 116.714844 308 121.898438 L 308 174 L 335 174 L 335 121.898438 C 335 101.828125 318.671875 85.5 298.601562 85.5 Z M 298.601562 85.5 " style=" stroke:none;fill-rule:nonzero;fill:rgb(20%,22.352941%,25.098039%);fill-opacity:1;" />
<path d="M 78.5 141 L 433.5 141 L 433.5 371 L 78.5 371 Z M 78.5 141 " style=" stroke:none;fill-rule:nonzero;fill:rgb(25.490196%,28.627451%,32.156863%);fill-opacity:1;" />
<path d="M 255.761719 141 L 433.5 141 L 433.5 371 L 255.761719 371 Z M 255.761719 141 " style=" stroke:none;fill-rule:nonzero;fill:rgb(20%,22.352941%,25.098039%);fill-opacity:1;" />
<path d="M 393.980469 241 L 118.019531 241 C 96.191406 241 78.5 223.308594 78.5 201.480469 L 78.5 141 L 433.5 141 L 433.5 201.480469 C 433.5 223.308594 415.808594 241 393.980469 241 Z M 393.980469 241 " style=" stroke:none;fill-rule:nonzero;fill:rgb(20%,22.352941%,25.098039%);fill-opacity:1;" />
<path d="M 255.761719 141 L 255.761719 241 L 393.980469 241 C 415.808594 241 433.5 223.308594 433.5 201.480469 L 433.5 141 Z M 255.761719 141 " style=" stroke:none;fill-rule:nonzero;fill:rgb(13.72549%,15.294118%,16.862745%);fill-opacity:1;" />
<path d="M 120.5 218 L 164.5 218 L 164.5 262 L 120.5 262 Z M 120.5 218 " style=" stroke:none;fill-rule:nonzero;fill:rgb(99.607843%,41.568627%,8.627451%);fill-opacity:1;" />
<path d="M 347.5 218 L 391.5 218 L 391.5 262 L 347.5 262 Z M 347.5 218 " style=" stroke:none;fill-rule:nonzero;fill:rgb(94.901961%,27.058824%,0%);fill-opacity:1;" />
<path d="M 135.890625 366.335938 L 247.328125 366.335938 L 247.328125 388.972656 L 135.890625 388.972656 Z M 135.890625 366.335938 " style=" stroke:none;fill-rule:nonzero;fill:rgb(100%,83.137255%,0%);fill-opacity:1;" />
<path d="M 135.890625 321.058594 L 247.328125 321.058594 L 247.328125 343.695312 L 135.890625 343.695312 Z M 135.890625 321.058594 " style=" stroke:none;fill-rule:nonzero;fill:rgb(100%,83.137255%,0%);fill-opacity:1;" />
<path d="M 135.890625 298.421875 L 247.328125 298.421875 L 247.328125 321.058594 L 135.890625 321.058594 Z M 135.890625 298.421875 " style=" stroke:none;fill-rule:nonzero;fill:rgb(100%,63.921569%,0%);fill-opacity:1;" />
<path d="M 135.890625 343.695312 L 247.328125 343.695312 L 247.328125 366.335938 L 135.890625 366.335938 Z M 135.890625 343.695312 " style=" stroke:none;fill-rule:nonzero;fill:rgb(100%,63.921569%,0%);fill-opacity:1;" />
<path d="M 318.109375 325.722656 C 318.109375 360.65625 289.792969 388.972656 254.859375 388.972656 C 219.929688 388.972656 191.609375 360.65625 191.609375 325.722656 C 191.609375 290.792969 219.929688 262.472656 254.859375 262.472656 C 289.792969 262.472656 318.109375 290.792969 318.109375 325.722656 Z M 318.109375 325.722656 " style=" stroke:none;fill-rule:nonzero;fill:rgb(99.215686%,72.941176%,7.058824%);fill-opacity:1;" />
<path d="M 318.109375 325.722656 C 318.109375 291.09375 290.277344 262.980469 255.761719 262.496094 L 255.761719 388.949219 C 290.277344 388.464844 318.109375 360.351562 318.109375 325.722656 Z M 318.109375 325.722656 " style=" stroke:none;fill-rule:nonzero;fill:rgb(100%,63.921569%,0%);fill-opacity:1;" />
<path d="M 301.359375 325.722656 C 301.359375 351.40625 280.542969 372.222656 254.859375 372.222656 C 229.179688 372.222656 208.359375 351.40625 208.359375 325.722656 C 208.359375 300.042969 229.179688 279.222656 254.859375 279.222656 C 280.542969 279.222656 301.359375 300.042969 301.359375 325.722656 Z M 301.359375 325.722656 " style=" stroke:none;fill-rule:nonzero;fill:rgb(100%,83.137255%,0%);fill-opacity:1;" />
<path d="M 301.359375 325.722656 C 301.359375 300.34375 281.023438 279.730469 255.761719 279.246094 L 255.761719 372.199219 C 281.023438 371.71875 301.359375 351.101562 301.359375 325.722656 Z M 301.359375 325.722656 " style=" stroke:none;fill-rule:nonzero;fill:rgb(99.215686%,72.941176%,7.058824%);fill-opacity:1;" />
</g>
</svg>